<?xml version="1.0" encoding="UTF-8" standalone="no"?>
<svg width="320" height="320" viewBox="0 0 320 320" xmlns="http://www.w3.org/2000/svg">
  <!-- Background -->
  <rect width="320" height="320" fill="#25D366"/>
  
  <!-- Chat Bubble -->
  <path d="M160,80 C213,80 255,122 255,175 C255,228 213,270 160,270 C140,270 122,264 107,254 L65,270 L81,228 C71,213 65,195 65,175 C65,122 107,80 160,80 Z" 
        fill="white"/>
  
  <!-- Wrench Icon -->
  <path d="M130,140 L190,200 M130,200 L190,140" 
        stroke="#25D366" stroke-width="15" stroke-linecap="round"/>
  <circle cx="130" cy="140" r="10" fill="#25D366"/>
  <circle cx="190" cy="140" r="10" fill="#25D366"/>
  <circle cx="130" cy="200" r="10" fill="#25D366"/>
  <circle cx="190" cy="200" r="10" fill="#25D366"/>
  
  <!-- Title -->
  <text x="160" y="250" font-family="Arial, sans-serif" font-size="16" font-weight="bold" text-anchor="middle" fill="#25D366">PROPERTY CHATBOT</text>
</svg> 